<svg width="128" height="128" xmlns="http://www.w3.org/2000/svg">
  <path d="M965.63399113 196.26211555c-52.4288-59.80766777-119.22697443-106.60522667-193.01565668-135.14979555a38.71963933 38.71963933 0 0 0-52.81716111 36.11761778v478.26716444a202.53051221 202.53051221 0 0 0-126.2174811-44.07902777c-112.43064889 0-203.88977778 91.45912889-203.88977777 203.88977778S481.15304335 939.19763001 593.58369224 939.19763001s203.88977778-91.45912889 203.88977777-203.88977778c0-2.13598777-0.19418112-4.27197667-0.38836223-6.40796444 0-1.16508445 0.3883611-2.13598777 0.38836223-3.30107336V158.39687111c41.16631666 23.10750777 78.6432 53.39970333 109.90629889 88.93477888 14.17519445 16.1170011 38.83614777 17.67044779 54.75896888 3.49525334 16.1170011-13.98101333 17.67044779-38.44778667 3.49525335-54.56478778zM593.58369224 861.52533333c-69.51670557 0-126.2174811-56.70077667-126.21748223-126.2174811s56.70077667-126.2174811 126.21748223-126.21748224 126.2174811 56.70077667 126.2174811 126.21748224-56.70077667 126.2174811-126.2174811 126.2174811zM79.0047289 278.98311111h446.61570333c21.3598811 0 38.83614777-17.47626667 38.83614889-38.83614777s-17.47626667-38.83614777-38.83614889-38.83614891h-446.61570333a38.83614777 38.83614777 0 1 0 0 77.67229668zM350.85776556 453.74577778h-271.85303666c-21.3598811 0-38.83614777 17.47626667-38.83614777 38.83614777s17.47626667 38.83614777 38.83614777 38.8361489h271.85303666c21.3598811 0 38.83614777-17.47626667 38.83614891-38.8361489s-17.47626667-38.83614777-38.83614891-38.83614777zM234.34932111 706.18074112h-155.34459221c-21.3598811 0-38.83614777 17.47626667-38.83614778 38.83614777s17.47626667 38.83614777 38.83614778 38.83614777h155.34459221c21.3598811 0 38.83614777-17.47626667 38.83614891-38.83614777s-17.47626667-38.83614777-38.83614891-38.83614777z" fill="#BFCBD9" p-id="1315"></path>
</svg>

