 <svg width="128" height="128" xmlns="http://www.w3.org/2000/svg">
  <path d="M512 104.66666666c248.52499981 0 450 201.4750002 450 450s-201.4750002 450-450 450S62 803.19166647 62 554.66666666 263.47500019 104.66666666 512 104.66666666z m0 56.25C294.54999981 160.91666666 118.25 337.21666647 118.25 554.66666666S294.54999981 948.41666666 512 948.41666666 905.75 772.11666685 905.75 554.66666666 729.45000019 160.91666666 512 160.91666666z m231.00000029 161.4499998V743.66666666c0 25.85000039-6.05000039 38.49999961-22.55000009 45.1000002-17.6000001 7.1499999-46.7499999 7.7000001-91.29999991 7.70000009-2.1999999-11.00000039-8.25000029-30.25000019-13.75000048-40.70000039 33.54999961 1.64999971 65.99999971 1.10000039 75.90000058 0.5500002 9.3499998 0 12.6500001-3.30000029 12.64999922-12.6500001V360.31666676h-263.99999971V322.36666647H743.00000029z m-358.5999999 144.1000002v231.54999961l56.6499999-39.6c2.7500001 11.00000039 8.79999961 26.39999971 12.09999991 34.10000068-86.9500002 64.95000029-104.07499981 77.5249998-112.62499981 88.07499932l-1.2250002 1.575c-4.39999981-8.25000029-15.95000039-21.9999999-23.10000029-28.04999941 10.45000019-8.25000029 29.7-28.59999961 29.7-56.10000059v-192.4999998H264.5v-39.04999981h119.90000039z m253.54999951 38.49999961v174.90000058H512v36.84999991h-36.8499999v-211.75000049h162.7999998z m-36.8499999 35.20000019H512v103.95h89.1V540.16666647z m63.24999961-125.3999997v35.20000019h-210.64999922v-35.20000019h210.64999922zM323.9 311.91666627c29.1499998 24.75 66.5499999 58.84999981 84.15 81.40000078l-27.5000001 28.59999961c-16.49999971-23.10000029-53.34999961-59.4-83.04999961-84.7000002z" fill="#ffffff" p-id="869"></path>
</svg>

